<svg xmlns="http://www.w3.org/2000/svg" width="1024" height="1024" viewBox="0 0 1024 1024"><rect width="1024" height="1024" fill="#141818"/><path d="M0 0V1024M0 0H1024" stroke="#1d2626" stroke-width="1"/><path d="M32 0V1024M0 32H1024" stroke="#1d2626" stroke-width="1"/><path d="M64 0V1024M0 64H1024" stroke="#1d2626" stroke-width="1"/><path d="M96 0V1024M0 96H1024" stroke="#1d2626" stroke-width="1"/><path d="M128 0V1024M0 128H1024" stroke="#1d2626" stroke-width="1"/><path d="M160 0V1024M0 160H1024" stroke="#1d2626" stroke-width="1"/><path d="M192 0V1024M0 192H1024" stroke="#1d2626" stroke-width="1"/><path d="M224 0V1024M0 224H1024" stroke="#1d2626" stroke-width="1"/><path d="M256 0V1024M0 256H1024" stroke="#1d2626" stroke-width="1"/><path d="M288 0V1024M0 288H1024" stroke="#1d2626" stroke-width="1"/><path d="M320 0V1024M0 320H1024" stroke="#1d2626" stroke-width="1"/><path d="M352 0V1024M0 352H1024" stroke="#1d2626" stroke-width="1"/><path d="M384 0V1024M0 384H1024" stroke="#1d2626" stroke-width="1"/><path d="M416 0V1024M0 416H1024" stroke="#1d2626" stroke-width="1"/><path d="M448 0V1024M0 448H1024" stroke="#1d2626" stroke-width="1"/><path d="M480 0V1024M0 480H1024" stroke="#1d2626" stroke-width="1"/><path d="M512 0V1024M0 512H1024" stroke="#1d2626" stroke-width="1"/><path d="M544 0V1024M0 544H1024" stroke="#1d2626" stroke-width="1"/><path d="M576 0V1024M0 576H1024" stroke="#1d2626" stroke-width="1"/><path d="M608 0V1024M0 608H1024" stroke="#1d2626" stroke-width="1"/><path d="M640 0V1024M0 640H1024" stroke="#1d2626" stroke-width="1"/><path d="M672 0V1024M0 672H1024" stroke="#1d2626" stroke-width="1"/><path d="M704 0V1024M0 704H1024" stroke="#1d2626" stroke-width="1"/><path d="M736 0V1024M0 736H1024" stroke="#1d2626" stroke-width="1"/><path d="M768 0V1024M0 768H1024" stroke="#1d2626" stroke-width="1"/><path d="M800 0V1024M0 800H1024" stroke="#1d2626" stroke-width="1"/><path d="M832 0V1024M0 832H1024" stroke="#1d2626" stroke-width="1"/><path d="M864 0V1024M0 864H1024" stroke="#1d2626" stroke-width="1"/><path d="M896 0V1024M0 896H1024" stroke="#1d2626" stroke-width="1"/><path d="M928 0V1024M0 928H1024" stroke="#1d2626" stroke-width="1"/><path d="M960 0V1024M0 960H1024" stroke="#1d2626" stroke-width="1"/><path d="M992 0V1024M0 992H1024" stroke="#1d2626" stroke-width="1"/><path d="M1024 0V1024M0 1024H1024" stroke="#1d2626" stroke-width="1"/><g transform="translate(512 512) scale(0.7) translate(-487 -512)"><defs><mask id="m"><path d="M438.5 363.5 A210 210 0 1 0 500 512 H330" fill="none" stroke="#fff" stroke-width="64" stroke-linejoin="round"/><path d="M630 722V302 M602 302H765 A110 110 0 0 1 765 522H630" fill="none" stroke="#fff" stroke-width="64" stroke-linejoin="round"/></mask></defs><g mask="url(#m)"><rect x="-500" y="-400" width="13" height="1800" fill="#64d5d2" transform="rotate(35 512 512)"/><rect x="-476" y="-400" width="13" height="1800" fill="#64d5d2" transform="rotate(35 512 512)"/><rect x="-452" y="-400" width="13" height="1800" fill="#64d5d2" transform="rotate(35 512 512)"/><rect x="-428" y="-400" width="13" height="1800" fill="#64d5d2" transform="rotate(35 512 512)"/><rect x="-404" y="-400" width="13" height="1800" fill="#64d5d2" transform="rotate(35 512 512)"/><rect x="-380" y="-400" width="13" height="1800" fill="#64d5d2" transform="rotate(35 512 512)"/><rect x="-356" y="-400" width="13" height="1800" fill="#64d5d2" transform="rotate(35 512 512)"/><rect x="-332" y="-400" width="13" height="1800" fill="#64d5d2" transform="rotate(35 512 512)"/><rect x="-308" y="-400" width="13" height="1800" fill="#64d5d2" transform="rotate(35 512 512)"/><rect x="-284" y="-400" width="13" height="1800" fill="#64d5d2" transform="rotate(35 512 512)"/><rect x="-260" y="-400" width="13" height="1800" fill="#64d5d2" transform="rotate(35 512 512)"/><rect x="-236" y="-400" width="13" height="1800" fill="#64d5d2" transform="rotate(35 512 512)"/><rect x="-212" y="-400" width="13" height="1800" fill="#64d5d2" transform="rotate(35 512 512)"/><rect x="-188" y="-400" width="13" height="1800" fill="#64d5d2" transform="rotate(35 512 512)"/><rect x="-164" y="-400" width="13" height="1800" fill="#64d5d2" transform="rotate(35 512 512)"/><rect x="-140" y="-400" width="13" height="1800" fill="#64d5d2" transform="rotate(35 512 512)"/><rect x="-116" y="-400" width="13" height="1800" fill="#64d5d2" transform="rotate(35 512 512)"/><rect x="-92" y="-400" width="13" height="1800" fill="#64d5d2" transform="rotate(35 512 512)"/><rect x="-68" y="-400" width="13" height="1800" fill="#64d5d2" transform="rotate(35 512 512)"/><rect x="-44" y="-400" width="13" height="1800" fill="#64d5d2" transform="rotate(35 512 512)"/><rect x="-20" y="-400" width="13" height="1800" fill="#64d5d2" transform="rotate(35 512 512)"/><rect x="4" y="-400" width="13" height="1800" fill="#64d5d2" transform="rotate(35 512 512)"/><rect x="28" y="-400" width="13" height="1800" fill="#64d5d2" transform="rotate(35 512 512)"/><rect x="52" y="-400" width="13" height="1800" fill="#64d5d2" transform="rotate(35 512 512)"/><rect x="76" y="-400" width="13" height="1800" fill="#64d5d2" transform="rotate(35 512 512)"/><rect x="100" y="-400" width="13" height="1800" fill="#64d5d2" transform="rotate(35 512 512)"/><rect x="124" y="-400" width="13" height="1800" fill="#64d5d2" transform="rotate(35 512 512)"/><rect x="148" y="-400" width="13" height="1800" fill="#64d5d2" transform="rotate(35 512 512)"/><rect x="172" y="-400" width="13" height="1800" fill="#64d5d2" transform="rotate(35 512 512)"/><rect x="196" y="-400" width="13" height="1800" fill="#64d5d2" transform="rotate(35 512 512)"/><rect x="220" y="-400" width="13" height="1800" fill="#64d5d2" transform="rotate(35 512 512)"/><rect x="244" y="-400" width="13" height="1800" fill="#64d5d2" transform="rotate(35 512 512)"/><rect x="268" y="-400" width="13" height="1800" fill="#64d5d2" transform="rotate(35 512 512)"/><rect x="292" y="-400" width="13" height="1800" fill="#64d5d2" transform="rotate(35 512 512)"/><rect x="316" y="-400" width="13" height="1800" fill="#64d5d2" transform="rotate(35 512 512)"/><rect x="340" y="-400" width="13" height="1800" fill="#64d5d2" transform="rotate(35 512 512)"/><rect x="364" y="-400" width="13" height="1800" fill="#64d5d2" transform="rotate(35 512 512)"/><rect x="388" y="-400" width="13" height="1800" fill="#64d5d2" transform="rotate(35 512 512)"/><rect x="412" y="-400" width="13" height="1800" fill="#64d5d2" transform="rotate(35 512 512)"/><rect x="436" y="-400" width="13" height="1800" fill="#64d5d2" transform="rotate(35 512 512)"/><rect x="460" y="-400" width="13" height="1800" fill="#64d5d2" transform="rotate(35 512 512)"/><rect x="484" y="-400" width="13" height="1800" fill="#64d5d2" transform="rotate(35 512 512)"/><rect x="508" y="-400" width="13" height="1800" fill="#64d5d2" transform="rotate(35 512 512)"/><rect x="532" y="-400" width="13" height="1800" fill="#64d5d2" transform="rotate(35 512 512)"/><rect x="556" y="-400" width="13" height="1800" fill="#64d5d2" transform="rotate(35 512 512)"/><rect x="580" y="-400" width="13" height="1800" fill="#64d5d2" transform="rotate(35 512 512)"/><rect x="604" y="-400" width="13" height="1800" fill="#64d5d2" transform="rotate(35 512 512)"/><rect x="628" y="-400" width="13" height="1800" fill="#64d5d2" transform="rotate(35 512 512)"/><rect x="652" y="-400" width="13" height="1800" fill="#64d5d2" transform="rotate(35 512 512)"/><rect x="676" y="-400" width="13" height="1800" fill="#64d5d2" transform="rotate(35 512 512)"/><rect x="700" y="-400" width="13" height="1800" fill="#64d5d2" transform="rotate(35 512 512)"/><rect x="724" y="-400" width="13" height="1800" fill="#64d5d2" transform="rotate(35 512 512)"/><rect x="748" y="-400" width="13" height="1800" fill="#64d5d2" transform="rotate(35 512 512)"/><rect x="772" y="-400" width="13" height="1800" fill="#64d5d2" transform="rotate(35 512 512)"/><rect x="796" y="-400" width="13" height="1800" fill="#64d5d2" transform="rotate(35 512 512)"/><rect x="820" y="-400" width="13" height="1800" fill="#64d5d2" transform="rotate(35 512 512)"/><rect x="844" y="-400" width="13" height="1800" fill="#64d5d2" transform="rotate(35 512 512)"/><rect x="868" y="-400" width="13" height="1800" fill="#64d5d2" transform="rotate(35 512 512)"/><rect x="892" y="-400" width="13" height="1800" fill="#64d5d2" transform="rotate(35 512 512)"/><rect x="916" y="-400" width="13" height="1800" fill="#64d5d2" transform="rotate(35 512 512)"/><rect x="940" y="-400" width="13" height="1800" fill="#64d5d2" transform="rotate(35 512 512)"/><rect x="964" y="-400" width="13" height="1800" fill="#64d5d2" transform="rotate(35 512 512)"/><rect x="988" y="-400" width="13" height="1800" fill="#64d5d2" transform="rotate(35 512 512)"/><rect x="1012" y="-400" width="13" height="1800" fill="#64d5d2" transform="rotate(35 512 512)"/><rect x="1036" y="-400" width="13" height="1800" fill="#64d5d2" transform="rotate(35 512 512)"/><rect x="1060" y="-400" width="13" height="1800" fill="#64d5d2" transform="rotate(35 512 512)"/><rect x="1084" y="-400" width="13" height="1800" fill="#64d5d2" transform="rotate(35 512 512)"/><rect x="1108" y="-400" width="13" height="1800" fill="#64d5d2" transform="rotate(35 512 512)"/><rect x="1132" y="-400" width="13" height="1800" fill="#64d5d2" transform="rotate(35 512 512)"/><rect x="1156" y="-400" width="13" height="1800" fill="#64d5d2" transform="rotate(35 512 512)"/><rect x="1180" y="-400" width="13" height="1800" fill="#64d5d2" transform="rotate(35 512 512)"/><rect x="1204" y="-400" width="13" height="1800" fill="#64d5d2" transform="rotate(35 512 512)"/><rect x="1228" y="-400" width="13" height="1800" fill="#64d5d2" transform="rotate(35 512 512)"/><rect x="1252" y="-400" width="13" height="1800" fill="#64d5d2" transform="rotate(35 512 512)"/><rect x="1276" y="-400" width="13" height="1800" fill="#64d5d2" transform="rotate(35 512 512)"/><rect x="1300" y="-400" width="13" height="1800" fill="#64d5d2" transform="rotate(35 512 512)"/><rect x="1324" y="-400" width="13" height="1800" fill="#64d5d2" transform="rotate(35 512 512)"/><rect x="1348" y="-400" width="13" height="1800" fill="#64d5d2" transform="rotate(35 512 512)"/><rect x="1372" y="-400" width="13" height="1800" fill="#64d5d2" transform="rotate(35 512 512)"/><rect x="1396" y="-400" width="13" height="1800" fill="#64d5d2" transform="rotate(35 512 512)"/><rect x="1420" y="-400" width="13" height="1800" fill="#64d5d2" transform="rotate(35 512 512)"/><rect x="1444" y="-400" width="13" height="1800" fill="#64d5d2" transform="rotate(35 512 512)"/><rect x="1468" y="-400" width="13" height="1800" fill="#64d5d2" transform="rotate(35 512 512)"/><rect x="1492" y="-400" width="13" height="1800" fill="#64d5d2" transform="rotate(35 512 512)"/></g><circle cx="750" cy="412" r="47" fill="none" stroke="#ffb300" stroke-width="7"/><path d="M750 412 Q777.6 435.1 790.0 412.0" fill="none" stroke="#ffb300" stroke-width="9" stroke-linecap="round"/><path d="M750 412 Q743.7 447.5 770.0 446.6" fill="none" stroke="#ffb300" stroke-width="9" stroke-linecap="round"/><path d="M750 412 Q716.2 424.3 730.0 446.6" fill="none" stroke="#ffb300" stroke-width="9" stroke-linecap="round"/><path d="M750 412 Q722.4 388.9 710.0 412.0" fill="none" stroke="#ffb300" stroke-width="9" stroke-linecap="round"/><path d="M750 412 Q756.3 376.5 730.0 377.4" fill="none" stroke="#ffb300" stroke-width="9" stroke-linecap="round"/><path d="M750 412 Q783.8 399.7 770.0 377.4" fill="none" stroke="#ffb300" stroke-width="9" stroke-linecap="round"/><circle cx="750" cy="412" r="10" fill="#ffb300"/></g></svg>